<svg xmlns="http://www.w3.org/2000/svg" viewBox='610 284.5 200 162.5'>
  <polyline id="circularPolyline" points="645.4765625,329.1796875 650.6534423828125,323.37939453125 657.9771118164062,320.9039306640625 665.4874267578125,322.3816223144531 671.1737670898438,327.3711853027344 673.51904296875,334.48126220703125 671.9105224609375,341.7466735839844 666.8051147460938,347.1603698730469 659.6061401367188,349.2163391113281 652.283447265625,347.317138671875 646.8405151367188,341.935546875 644.7722778320312,334.4866943359375 646.66064453125,326.94500732421875 652.0171508789062,321.3101501464844 659.4149780273438,319.06597900390625 666.8751831054688,320.7788391113281 672.4019775390625,325.944580078125 674.5228271484375,333.1247863769531 672.6868286132812,340.3360900878906 667.4138793945312,345.58673095703125 660.1538696289062,347.4155578613281 652.8944702148438,345.28729248046875 647.623291015625,339.7374267578125 645.7900390625,332.22723388671875 647.9143676757812,324.74859619140625 653.4451904296875,319.2847900390625 660.909912109375,317.2740783691406 668.3126220703125,319.2204284667969 673.6743774414062,324.5572204589844 675.5686645507812,331.8005065917969 673.5070190429688,338.9505920410156 668.07177734375,344.03302001953125 660.7579345703125,345.6329040527344 653.5689697265625,343.27764892578125 648.4746704101562,337.56494140625 646.8782348632812,330.0008850097656 649.2364501953125,322.5926513671875 654.9361572265625,317.3052978515625 662.4603271484375,315.530029296875 669.7982788085938,317.70794677734375 674.98974609375,323.21051025390625 676.6555786132812,330.5097351074219 674.3704223632812,337.5915222167969 668.7781372070312,342.500732421875 661.4176635742188,343.8700866699219 654.3062133789062,341.2901916503906 649.3939208984375,335.4202880859375 648.0358276367188,327.809814453125 650.6255493164062,320.47930908203125 656.4885864257812,315.37359619140625 664.0648193359375,313.8355407714844 671.3306884765625,316.2428894042969 676.3468017578125,321.9057922363281 677.782470703125,329.25372314453125 675.2760009765625,336.26025390625 669.5323486328125,340.99139404296875 662.1324462890625,342.1288757324219 655.1055297851562,339.3268737792969 650.3800048828125,333.3055419921875 649.2616577148438,325.65618896484375 652.0803833007812,318.41064453125 658.1008911132812,313.4916076660156 665.7216796875,312.1922912597656 672.9083862304688,314.82666015625 677.744140625,320.64434814453125 678.9483032226562,328.03375244140625 676.2229614257812,334.9580993652344 670.3335571289062,339.5064697265625 662.9015502929688,340.41094970703125 655.9661254882812,337.3896179199219 651.43212890625,331.22283935546875 650.5545654296875,323.5421142578125 653.5994873046875,316.3887023925781 659.7715454101562,311.66119384765625 667.4293823242188,310.6018981933594 674.52978515625,313.460693359375 679.180419921875,319.42742919921875 680.15185546875,326.85101318359375 677.2103881835938,333.6863098144531 671.1809692382812,338.0474548339844 663.7243041992188,338.7180480957031 656.88720703125,335.4803771972656 652.549072265625,329.1741943359375 651.9132690429688,321.4697265625 655.1813354492188,314.41546630859375 661.4988403320312,309.8841552734375 669.1861572265625,309.06591796875 676.1932373046875,312.1463623046875 680.6541748046875,318.2561950683594 681.3920288085938,325.7066345214844 678.2372436523438,332.4461669921875 672.0738525390625,336.61578369140625 664.5997314453125,337.05181884765625 657.8677368164062,333.6009826660156 653.7298583984375,327.1616516113281 653.3363647460938,319.4410095214844 656.8244018554688,312.4928894042969 663.2811279296875,308.1622314453125 670.9903564453125,307.58587646484375 677.897216796875,310.8848876953125 682.1640014648438,317.1318359375 682.66748046875,324.6017761230469 679.3026123046875,331.2389221191406 673.01123046875,335.2128601074219 665.5271606445312,335.4139099121094 658.9068603515625,331.7533264160156 654.9732666015625,325.18719482421875 654.8224487304688,317.4580078125 658.5270385742188,310.62286376953125 665.1165771484375,306.4971618652344 672.8401489257812,306.16326904296875 679.6399536132812,309.6775817871094 683.7084350585938,316.05548095703125 683.9769897460938,323.53753662109375 680.4053344726562,330.0657043457031 673.9922485351562,333.8400573730469 666.5054931640625,333.8059387207031 660.0034790039062,329.939208984375 656.278076171875,323.2527770996094 656.3701171875,315.52264404296875 660.28759765625,308.8072509765625 667.0034790039062,304.89056396484375 674.7337036132812,304.7994384765625 681.4197998046875,308.5256042480469 685.285888671875,315.02813720703125 685.3193359375,322.51495361328125 681.5443115234375,328.9277038574219 675.015869140625,332.498779296875 667.533935546875,332.2295227050781 661.156494140625,328.1604309082031 657.6430053710938,321.36029052734375 657.977783203125,313.6368713378906 662.104248046875,307.0478210449219 668.9398803710938,303.34405517578125 676.6691284179688,303.4957580566406 683.2349243164062,307.43011474609375 686.8948974609375,314.0508728027344 686.693115234375,321.5350341796875 682.7185668945312,327.8260498046875 676.0811157226562,331.1903076171875 668.611328125,330.6861572265625 662.3648681640625,326.41876220703125 659.0667114257812,319.5116271972656 659.6439208984375,311.8025207519531 663.975341796875,305.3463439941406 670.9238891601562,301.8591003417969 678.6445922851562,302.2535095214844 685.0835571289062,306.39215087890625 688.5337524414062,313.1246337890625 688.0969848632812,320.5987548828125 683.9267578125,326.7618103027344 677.1869506835938,329.9159240722656 669.7366943359375,329.1773986816406 663.6273803710938,324.7159118652344 660.5477294921875,317.70855712890625 661.3668823242188,310.0213928222656 665.89892578125,303.7044677734375 672.95361328125,300.43719482421875 680.6580810546875,301.0739440917969 686.9638671875,305.4128112792969 690.2008666992188,312.25030517578125 689.529541015625,319.70703125 685.1678466796875,325.736083984375 678.332275390625,328.6769104003906 670.9088745117188,327.7047119140625 664.9426879882812,323.0535583496094 662.084716796875,315.95294189453125 663.1448974609375,308.2952880859375 667.8731079101562,302.12384033203125 675.0269165039062,299.07977294921875 682.7076416015625,299.95819091796875 688.8740234375,304.49298095703125 691.8946533203125,311.4288024902344 690.9894409179688,318.8607482910156 686.4404907226562,324.74981689453125 679.5159301757812,327.4744873046875 672.126708984375,326.26959228515625 666.3096313476562,321.4333190917969 663.6760864257812,314.2464294433594 664.9762573242188,306.6258850097656 669.89599609375,300.6059875488281 677.1419067382812,297.7881164550781 684.7911987304688,298.9073791503906 690.8121337890625,303.63360595703125 693.6134033203125,310.660888671875 692.4752197265625,318.0607604980469 687.7435302734375,323.80401611328125 680.73681640625,326.3098449707031 673.3890991210938,324.8734436035156 667.7267456054688,319.8568420410156 665.3202514648438,312.59075927734375 666.8591918945312,305.0148010253906 671.965576171875,299.15240478515625 679.29638671875,296.56353759765625 686.9067993164062,297.9225158691406 692.7762451171875,302.8355407714844 695.35546875,309.9473571777344 693.9853515625,317.30780029296875 689.0756225585938,322.89959716796875 681.99365234375,325.1841125488281 674.6946411132812,323.51763916015625 669.1926879882812,318.32562255859375 667.015625,310.9875793457031 668.791748046875,303.46368408203125 674.0797729492188,297.76458740234375 681.4883422851562,295.4072570800781 689.05224609375,297.0046081542969 694.7644653320312,302.0995788574219 697.1190185546875,309.28887939453125 695.5184326171875,316.6026611328125 690.4354858398438,322.0374755859375 683.2852172851562,324.0984191894531 676.0421752929688,322.2034912109375 670.7060546875,316.8412170410156 668.760498046875,309.43841552734375 670.7720947265625,301.9740295410156 676.2365112304688,296.44384765625 683.7154541015625,294.32037353515625 691.2254638671875,296.1545104980469 696.7748413085938,301.4263916015625 698.9024047851562,308.6861267089844 697.0728759765625,315.9460144042969 691.8217163085938,321.218505859375 684.6102294921875,323.0538330078125 677.4302978515625,320.9323425292969 672.2652587890625,315.40509033203125 670.55322265625,307.94482421875 672.7982177734375,300.54730224609375 678.4337158203125,295.1914978027344 685.9756469726562,293.30401611328125 693.42431640625,295.3731384277344 698.805419921875,300.81671142578125 700.703857421875,308.1396789550781 698.6471557617188,315.3385314941406 693.2329711914062,320.4434814453125 685.9674682617188,322.0513610839844 678.8577270507812,319.70538330078125 673.8687744140625,314.0186462402344 672.3919067382812,306.5082702636719 674.8682250976562,299.1849365234375 680.6691284179688,294.0087585449219 688.2666015625,292.359130859375 695.6466674804688,294.66119384765625 700.8540649414062,300.2711181640625 702.5216064453125,307.6501159667969 700.2398071289062,314.7807922363281 694.6679077148438,319.7131652832031 687.35546875,321.092041015625 680.3229370117188,318.5238952636719 675.5150756835938,312.6832580566406 674.2748413085938,305.13018798828125 676.97998046875,297.88824462890625 682.9406127929688,292.8968505859375 690.586181640625,291.4866638183594 697.8902587890625,294.0194091796875 702.9188842773438,299.7901306152344 704.353759765625,307.2178649902344 701.84912109375,314.27337646484375 696.1251220703125,319.02825927734375 688.77294921875,320.1767883300781 681.8245239257812,317.3890075683594 677.2025146484375,311.4002380371094 676.2001342773438,303.81195068359375 679.1314086914062,296.6585388183594 685.245849609375,291.8568420410156 692.9319458007812,290.6875 700.1528930664062,293.44842529296875 704.9977416992188,299.374267578125 706.1986694335938,306.8433837890625 703.4736328125,313.8167419433594 697.6030883789062,318.3894958496094 690.2184448242188,319.3065185546875 683.3610229492188,316.3018493652344 678.9293823242188,310.1708679199219 678.1658935546875,302.5548095703125 681.3203735351562,295.49700927734375 687.5826416015625,290.8897399902344 695.3016967773438,289.96240234375 702.432373046875,292.94879150390625 707.0886840820312,299.02386474609375 708.0543823242188,306.52703857421875 705.1116943359375,313.4113464355469 699.100341796875,317.7974548339844 691.6906127929688,318.4820556640625 684.930908203125,315.26348876953125 680.694091796875,308.9963073730469 680.170166015625,301.3600769042969 683.5447998046875,294.4048156738281 689.9486694335938,289.99652099609375 697.6930541992188,289.3121032714844 704.7263793945312,292.52099609375 709.1896362304688,298.7393493652344 709.9191284179688,306.2691345214844 706.7616577148438,313.0576171875 700.6155395507812,317.25274658203125 693.1878662109375,317.7042541503906 686.5326538085938,314.27496337890625 682.4947509765625,307.8777770996094 682.2109985351562,300.2288513183594 685.8024291992188,293.3830261230469 692.3416137695312,289.1780700683594 700.1036376953125,288.73724365234375 707.03271484375,292.16546630859375 711.2984008789062,298.52093505859375 711.7910766601562,306.0699462890625 708.421875,312.7558898925781 702.1470336914062,316.7558898925781 694.7089233398438,316.973876953125 688.1646728515625,313.33721923828125 684.3297119140625,306.8163757324219 684.2863159179688,299.16229248046875 688.0910034179688,292.43267822265625 694.759033203125,288.4351806640625 702.5311279296875,288.2383728027344 709.3490600585938,291.882568359375 713.4130249023438,298.368896484375 713.6683349609375,305.92962646484375 710.0908203125,312.5064697265625 703.6934204101562,316.307373046875 696.2520751953125,316.2916259765625 689.8253173828125,312.4512023925781 686.1970825195312,305.8131103515625 686.3941040039062,298.1614685058594 690.4083251953125,291.5546569824219 697.1986694335938,287.7685852050781 704.9730224609375,287.8160095214844 711.6731567382812,291.67254638671875 715.5313720703125,298.2833251953125 715.549072265625,305.8483581542969 711.7667236328125,312.3095703125 705.2531127929688,315.9076843261719 697.81591796875,315.658203125 691.5130004882812,311.6177978515625 688.0950317382812,304.8690185546875 688.5323486328125,297.2273254394531 692.7520751953125,290.7498779296875 699.657958984375,287.178955078125 707.4270629882812,287.4705505371094 714.0027465820312,291.53564453125 717.6513671875,298.2643737792969 717.4314575195312,305.8262023925781 713.447998046875,312.1654357910156 706.8245849609375,315.5571594238281 699.39892578125,315.0741882324219 693.2259521484375,310.8377990722656 690.0216674804688,303.9849853515625 690.6987915039062,296.3608093261719 695.1199340820312,290.01910400390625 702.1345825195312,286.6668701171875 709.8906860351562,287.2023620605469 716.33544921875,291.47198486328125 719.7709350585938,298.3119812011719 719.3135986328125,305.8631896972656 715.1329956054688,312.07415771484375 708.4063110351562,315.25616455078125 700.9994506835938,314.5401916503906 694.962646484375,310.11199951171875 691.9751586914062,303.16192626953125 692.8914794921875,295.5627746582031 697.5095825195312,289.3630676269531 704.6260986328125,286.2328186035156 712.3615112304688,287.01165771484375 718.6690063476562,291.48162841796875 721.887939453125,298.4261779785156 721.193603515625,305.95928955078125 716.8200073242188,312.0358581542969 709.9966430664062,315.0050048828125 702.6160278320312,314.0567321777344 696.7212524414062,309.44110107421875 693.9535522460938,302.400634765625 695.1080932617188,294.833984375 699.918701171875,288.78240966796875 707.1300048828125,285.87725830078125 714.837158203125,286.898681640625 721.0010986328125,291.5645751953125 724.0003051757812,298.6067810058594 723.0697021484375,306.1143798828125 718.5073852539062,312.05059814453125 711.5941772460938,314.803955078125 704.2469482421875,313.6242980957031 698.5000610351562,308.8258056640625 695.9548950195312,301.70184326171875 697.3464965820312,294.1752014160156 702.3447875976562,288.2777099609375 709.643798828125,285.6004943847656 717.3150634765625,286.863525390625 723.3294067382812,291.720703125 726.1060180664062,298.8536682128906 724.9400024414062,306.3283386230469 720.1934814453125,312.1182861328125 713.1972045898438,314.65313720703125 705.890625,313.2433166503906 700.2973022460938,308.26666259765625 697.9771728515625,301.0662841796875 699.6045532226562,293.5870666503906 704.7855834960938,287.8494873046875 712.1651000976562,285.4028625488281 719.7929077148438,286.9062194824219 725.6517333984375,291.9499206542969 728.202880859375,299.16656494140625 726.8026733398438,306.6009216308594 721.8766479492188,312.23895263671875 714.8041381835938,314.5527648925781 707.5454711914062,312.91412353515625 702.1112670898438,307.76422119140625 700.0184326171875,300.4945373535156 701.8798828125,293.07012939453125 707.2386474609375,287.49810791015625 714.6913452148438,285.28448486328125 722.2681884765625,287.0267028808594 727.9656372070312,292.251953125 730.2888793945312,299.545166015625 728.6558837890625,306.931884765625 723.5551147460938,312.4123840332031 716.4134521484375,314.5029296875 709.2098388671875,312.6370849609375 703.9400634765625,307.31903076171875 702.0765991210938,299.9871826171875 704.17041015625,292.62493896484375 709.7014770507812,287.2239990234375 717.2200927734375,285.24554443359375 724.7384033203125,287.2248840332031 730.2689819335938,292.62652587890625 732.3619384765625,299.9891357421875 730.4977416992188,307.3208923339844 725.2273559570312,312.6384582519531 718.0235595703125,314.503662109375 710.8821411132812,312.4124755859375 705.781982421875,306.9315185546875 704.1497192382812,299.5447692871094 706.4737548828125,292.25189208984375 712.1717529296875,287.02734375 719.748779296875,285.2860412597656 727.2012329101562,287.5005798339844 732.5593872070312,293.0732727050781 734.4200439453125,300.49798583984375 732.3264770507812,307.7675476074219 726.8916625976562,312.9169616699219 719.6328125,314.5549621582031 712.5606079101562,312.240478515625 707.6351318359375,306.60205078125 706.2357177734375,299.16766357421875 708.7876586914062,291.9513854980469 714.64697265625,286.90838623046875 722.2749633789062,285.4059753417969 729.6541748046875,287.8534851074219 734.8346557617188,293.59173583984375 736.461181640625,301.0711975097656 734.1402587890625,308.2714538574219 728.5464477539062,313.24761962890625 721.2396850585938,314.65679931640625 714.24365234375,312.1213073730469 709.4977416992188,306.3309326171875 708.33251953125,298.85626220703125 711.10986328125,291.72369384765625 717.1246948242188,286.86724853515625 724.7960815429688,285.60516357421875 732.0947875976562,288.28326416015625 737.0924682617188,294.181396484375 738.4832763671875,301.7082824707031 735.9373779296875,308.8320617675781 730.18994140625,313.63006591796875 722.8425903320312,314.80902099609375 715.9296264648438,312.0550537109375 711.367919921875,306.11846923828125 710.4381103515625,298.6108703613281 713.4381103515625,291.569091796875 719.6025390625,286.9039611816406 727.3097534179688,285.8834533691406 734.520751953125,288.78948974609375 739.3306884765625,294.8417053222656 740.484375,302.4085388183594 737.7159423828125,309.4488525390625 731.8206787109375,314.06396484375 724.4398803710938,315.0115661621094 717.6168823242188,312.0417785644531 713.243896484375,305.96484375 712.5503540039062,298.4317626953125 715.77001953125,291.4876708984375 722.0779418945312,287.01849365234375 729.8134155273438,286.2405700683594 736.9295654296875,289.3716735839844 741.5470581054688,295.57196044921875 742.4624633789062,303.17132568359375 739.4743041992188,310.1211853027344 733.4369506835938,314.5488586425781 726.030029296875,315.26416015625 719.3036499023438,312.08154296875 715.1237182617188,305.8702392578125 714.6671142578125,298.319091796875 718.1033935546875,291.47955322265625 724.5485229492188,287.210693359375 732.3046875,286.6761474609375 739.3189697265625,290.02923583984375 743.7393798828125,296.3714904785156 744.4156494140625,303.9958801269531 741.2106323242188,310.84844970703125 735.0372314453125,315.08428955078125 727.6115112304688,315.5665588378906 720.9884033203125,312.17425537109375 717.005615234375,305.834716796875 716.7864379882812,298.27294921875 720.435791015625,291.5447082519531 727.0119018554688,287.4804382324219 734.7809448242188,287.18975830078125 741.6864624023438,290.7615051269531 745.905517578125,297.239501953125 746.3419799804688,304.88134765625 742.9232788085938,311.6298828125 736.619873046875,315.6697082519531 729.1826782226562,315.91851806640625 722.6693725585938,312.31982421875 718.8876953125,305.8583068847656 718.9061279296875,298.29339599609375 722.7650756835938,291.68310546875 729.465576171875,287.827392578125 737.2399291992188,287.7809143066406 744.0298461914062,291.56781005859375 748.0432739257812,298.17510986328125 748.239501953125,305.826904296875 744.6105346679688,312.4647216796875 738.183349609375,316.3045654296875 730.7420043945312,316.31964111328125 724.344970703125,312.51812744140625 720.7681274414062,305.9410400390625 721.024169921875,298.3804016113281 725.0888061523438,291.8946228027344 731.9071044921875,288.2512512207031 739.6791381835938,288.4490051269531 746.3467407226562,292.4472961425781 750.150634765625,299.17742919921875 750.1064453125,306.83160400390625 746.270751953125,313.3521423339844 739.72607421875,316.98822021484375 732.2879638671875,316.76953125 726.0134887695312,312.76898193359375 722.6449584960938,306.082763671875 723.138427734375,298.533935546875 727.40478515625,292.17901611328125 734.3341674804688,288.7516174316406 742.0960693359375,289.193359375 748.6348266601562,293.3991394042969 752.2254638671875,300.24542236328125 751.9408569335938,307.8944396972656 747.9022216796875,314.2912902832031 741.2466430664062,317.719970703125 733.8190307617188,317.26776123046875 727.6732788085938,313.0721130371094 724.5164794921875,306.28338623046875 725.2467651367188,298.7537841796875 729.7106323242188,292.5359802246094 736.7442626953125,289.32794189453125 744.488525390625,290.0133056640625 750.8919067382812,294.42236328125 754.2657470703125,301.3780822753906 753.7410278320312,309.0143737792969 749.5034790039062,315.28118896484375 742.743408203125,318.4991455078125 735.3336791992188,317.8138732910156 729.3228149414062,313.4272155761719 726.3807373046875,306.5426940917969 727.3472290039062,299.03973388671875 732.004150390625,292.9652404785156 739.1350708007812,289.9797058105469 746.85400390625,290.907958984375 753.11572265625,295.5159912109375 756.2694091796875,302.5742492675781 755.5050659179688,310.1903076171875 751.07275390625,316.3209228515625 744.2149658203125,319.324951171875 736.8304443359375,318.4072570800781 730.9603271484375,313.8339538574219 728.2359619140625,306.86041259765625 729.4376220703125,299.39154052734375 734.2830810546875,293.46630859375 741.5042724609375,290.70623779296875 749.190185546875,291.8764953613281 755.3041381835938,296.678955078125 758.2345581054688,303.832763671875 757.2313842773438,311.4210510253906 752.608642578125,317.409423828125 745.659912109375,320.1965637207031 738.3078002929688,319.04736328125 732.584228515625,314.2919616699219 730.080322265625,307.23626708984375 731.5159301757812,299.8088073730469 736.545166015625,294.0387268066406 743.8494873046875,291.5068359375 751.4948120117188,292.9179382324219 757.4548950195312,297.9100646972656 760.1591796875,305.15240478515625 758.9180908203125,312.7054138183594 754.109619140625,318.545654296875 747.0767211914062,321.1131286621094 739.7643432617188,319.73358154296875 734.1929931640625,314.80072021484375 731.9119262695312,307.6698913574219 733.5801391601562,300.2911682128906 738.7880859375,294.681884765625 746.1683349609375,292.38067626953125 753.765625,294.03125 759.56591796875,299.2081298828125 762.0413818359375,306.5318298339844 760.563720703125,314.0421447753906 755.5740966796875,319.72845458984375 748.4640502929688,322.0737609863281 741.1986694335938,320.4651794433594 735.7849731445312,315.3597717285156 733.72900390625,308.1607971191406 735.628173828125,300.838134765625 741.009765625,295.39520263671875 748.4586181640625,293.32696533203125 756.0003051757812,295.21533203125 761.6351318359375,300.57183837890625 763.8793334960938,307.9696960449219 762.16650390625,315.4299011230469 757.000732421875,320.9566650390625 749.820556640625,323.0774841308594 742.6092529296875,321.2414855957031 737.3585815429688,315.96856689453125 735.5297241210938,308.70855712890625 737.6580200195312,301.44915771484375 743.2078857421875,296.1779479980469 750.7180786132812,294.3446960449219 758.1967163085938,296.4690246582031 763.6605224609375,301.9999084472656 765.6712036132812,309.464599609375 763.724853515625,316.8673095703125 758.3881225585938,322.2290954589844 751.1448364257812,324.1233215332031 743.9947509765625,322.0617370605469 738.9122924804688,316.62646484375 737.3123779296875,309.3125915527344 739.6676635742188,302.1236267089844 745.38037109375,297.02935791015625 752.9443969726562,295.43292236328125 760.3526611328125,297.7911071777344 765.6400146484375,303.4908447265625 767.415283203125,311.0150146484375 765.2373657226562,318.3529357910156 759.7348022460938,323.5444641113281 752.4356079101562,325.2102355957031 745.353759765625,322.9250793457031 740.444580078125,317.3328552246094 739.0751953125,309.97235107421875 741.6550903320312,302.86090087890625 747.5250244140625,297.9485778808594 755.135498046875,296.59051513671875 762.4660034179688,299.18023681640625 767.5717163085938,305.04327392578125 769.1097412109375,312.6194763183594 766.7024536132812,319.8853759765625 761.0394897460938,324.9014892578125 753.6915893554688,326.337158203125 746.68505859375,323.8306884765625 741.9539184570312,318.0870056152344 740.8164672851562,310.6871337890625 743.6184692382812,303.66021728515625 749.6397705078125,298.9347229003906 757.2891235351562,297.8163757324219 764.53466796875,300.63507080078125 769.4537353515625,306.65557861328125 770.7529907226562,314.2763671875 768.11865234375,321.46307373046875 762.3009643554688,326.298828125 754.9115600585938,327.50299072265625 747.9872436523438,324.7776794433594 743.4388427734375,318.8882141113281 742.5343627929688,311.4562683105469 745.5556640625,304.5208435058594 751.7224731445312,299.9867858886719 759.4031982421875,299.1092834472656 766.556640625,302.1541748046875 771.2841186523438,308.32623291015625 772.3434448242188,315.98406982421875 769.484619140625,323.0844421386719 763.5178833007812,327.7350769042969 756.0942993164062,328.7065734863281 749.2589721679688,325.76507568359375 744.8978271484375,319.7356872558594 744.2272338867188,312.2789611816406 747.4649658203125,305.4418640136719 753.7711181640625,301.103759765625 761.4755859375,300.4679260253906 768.5298461914062,303.73602294921875 773.0611572265625,310.05352783203125 773.87939453125,317.7408447265625 770.7989501953125,324.7479553222656 764.6891479492188,329.2088623046875 757.2387084960938,329.9466857910156 750.4991455078125,326.7919616699219 746.3295288085938,320.6285400390625 745.8934936523438,313.1544494628906 749.3443603515625,306.42242431640625 755.7836303710938,302.2845458984375 763.5043334960938,301.8910217285156 770.4524536132812,305.37908935546875 774.7830810546875,311.8357849121094 775.3594360351562,319.5450439453125 772.0604248046875,326.451904296875 765.8134765625,330.7187194824219 758.343505859375,331.2221374511719 751.7064208984375,327.8572692871094 747.7324829101562,321.56591796875 747.5313720703125,314.0818176269531 751.1920166015625,307.4615173339844 757.7581176757812,303.5279541015625 765.4873046875,303.37713623046875 772.3224487304688,307.08172607421875 776.4481201171875,313.6712646484375 776.7820434570312,321.3948059082031 773.2677001953125,328.1946716308594 766.8898315429688,332.26312255859375 759.4077758789062,332.53167724609375 752.879638671875,328.9599914550781 749.105224609375,322.54693603515625 749.1393432617188,315.0602111816406 753.006103515625,308.5581359863281 759.6925048828125,304.832763671875 767.4226684570312,304.9248046875 774.1380615234375,308.8422546386719 778.0547485351562,315.5581359863281 778.1458740234375,323.2883605957031 774.419677734375,329.9744567871094 767.9171752929688,333.8406066894531 760.4303588867188,333.8739929199219 754.017578125,330.0990295410156 750.446533203125,323.570556640625 750.7158203125,316.0885925292969 754.7848510742188,309.7112121582031 761.5850219726562,306.19769287109375 769.3084716796875,306.5325012207031 775.8974609375,310.6589660644531 779.6012573242188,317.49456787109375 779.4495849609375,325.22381591796875 775.5151977539062,331.7895812988281 768.8944091796875,335.4495544433594 761.4102783203125,335.2477722167969 755.1192626953125,331.2732238769531 751.7550048828125,324.63580322265625 752.2591552734375,317.166015625 756.5265502929688,310.9195861816406 763.4337158203125,307.6213684082031 771.142822265625,308.1986389160156 777.5989379882812,312.530029296875 781.0862426757812,319.47857666015625 780.6917724609375,327.19927978515625 776.5531616210938,333.6382141113281 769.8206787109375,337.0884094238281 762.3465576171875,336.6516418457031 756.1834716796875,332.4814758300781 753.0294189453125,325.74163818359375 753.7679443359375,318.2913513183594 758.2294311523438,312.18206787109375 765.2367553710938,309.1024475097656 772.9238891601562,309.92156982421875 779.2408447265625,314.45361328125 782.5081176757812,321.5082702636719 781.8713989257812,329.2127685546875 777.5325317382812,335.5185241699219 770.6950073242188,338.75555419921875 763.23828125,338.0842590332031 757.209228515625,333.7225341796875 754.2684326171875,326.886962890625 755.2406005859375,319.46356201171875 759.8917846679688,313.4974060058594 766.9923706054688,310.639404296875 774.6500244140625,311.6995849609375 780.8214721679688,316.4278259277344 783.8655395507812,323.5816345214844 782.9871215820312,331.2623291015625 778.4523315429688,337.4286804199219 771.5165405273438,340.4493408203125 764.0845336914062,339.54412841796875 758.1954956054688,334.9952087402344 755.4708251953125,328.0706481933594 756.6757202148438,320.6814270019531 761.5120239257812,314.86431884765625 768.6988525390625,312.23077392578125 776.3194580078125,313.53094482421875 782.33935546875,318.4507141113281 785.1571655273438,325.69659423828125 784.0379638671875,333.3459167480469 779.3117065429688,339.3667907714844 772.284423828125,342.1681213378906 764.8845825195312,341.0299072265625 759.1412963867188,336.2982177734375 756.635498046875,329.29150390625 758.0718383789062,321.94378662109375 763.0885009765625,316.28143310546875 770.3545532226562,313.87493896484375 777.9304809570312,315.4138488769531 783.7929077148438,320.520263671875 786.3817749023438,327.8511047363281 785.0228271484375,335.46148681640625 780.1097412109375,341.3309326171875 772.9979858398438,343.9101257324219 765.6375122070312,342.5400390625 760.0457153320312,337.63031005859375 757.76123046875,330.54833984375 759.4276733398438,323.2493591308594 764.6196899414062,317.7474060058594 771.957763671875,315.5703125 779.4816284179688,317.346435546875 785.1807250976562,322.63446044921875 787.5380249023438,330.0429992675781 785.9407348632812,337.60693359375 780.8457641601562,343.3191833496094 773.6564331054688,345.6737060546875 766.3426513671875,344.0731201171875 760.9078369140625,338.9901428222656 758.846923828125,331.83990478515625 760.7418212890625,324.59686279296875 766.1040649414062,319.2607116699219 773.5068969726562,317.3152160644531 780.9713134765625,319.3267822265625 786.50146484375,324.79119873046875 788.6249389648438,332.2701416015625 786.790771484375,339.7801818847656 781.5189208984375,345.3295593261719 774.2592163085938,347.45709228515625 766.999267578125,345.6275634765625 761.726806640625,340.37640380859375 759.8914794921875,333.1649475097656 762.0130004882812,325.9850158691406 767.5402221679688,320.8199157714844 775.00048828125,319.10791015625 782.3980102539062,321.3529357910156 787.7538452148438,326.9883728027344 789.6412963867188,334.5303039550781 787.5722045898438,341.9790344238281 782.1286010742188,347.3600769042969 774.8056030273438,349.258544921875 767.6067504882812,347.2018737792969 762.5018310546875,341.7876892089844 760.8939208984375,334.52215576171875 763.2399291992188,327.4123840332031 768.9266357421875,322.4234619140625 776.43701171875,320.9466247558594 783.7603759765625,323.42291259765625 788.9365234375,329.22381591796875 790.586181640625,336.8213195800781 788.2841186523438,344.20135498046875 782.6741943359375,349.40875244140625 775.2952270507812,351.0762634277344 768.1644897460938,348.79449462890625 763.232177734375,343.2226257324219 761.853271484375,335.91015625 764.42138671875,328.8775939941406 770.2620239257812,324.06976318359375 777.8151245117188,322.8295593261719 785.0570678710938,325.5346374511719 790.0484619140625,331.4952697753906 791.4586791992188,339.1408386230469 788.9259033203125,346.4449462890625 783.1551513671875,351.47357177734375 775.7274780273438,352.9084777832031 768.6719360351562,350.4038391113281 763.9170532226562,344.6797790527344 762.7685546875,337.32763671875 765.5562744140625,330.37921142578125 771.5450439453125,325.7572021484375 779.1333618164062,324.7548522949219 786.2868041992188,327.68609619140625 791.0885009765625,333.800537109375 792.2578125,341.48663330078125 789.4968872070312,348.70758056640625 783.571044921875,353.5524597167969 776.1019287109375,354.75335693359375 769.1286010742188,352.0283203125 764.5558471679688,346.1577453613281 763.6387939453125,338.77313232421875 766.6434326171875,331.91571044921875 772.7744750976562,327.4841003417969 780.3905029296875,326.7205810546875 787.4483032226562,329.8750915527344 792.0555419921875,336.1373596191406 792.98291015625,343.85638427734375 789.9965209960938,350.9870300292969 783.9214477539062,355.6434020996094 776.4182739257812,356.60906982421875 769.533935546875,353.6663513183594 765.1478271484375,347.6550598144531 764.4632568359375,340.2452697753906 767.6818237304688,333.4856262207031 773.948974609375,329.2487487792969 781.5852661132812,328.724853515625 788.5404663085938,332.0994873046875 792.9487915039062,338.5033874511719 793.6332397460938,346.24774169921875 790.42431640625,353.28106689453125 784.2059936523438,357.7442932128906 776.6761474609375,358.47381591796875 769.8876953125,355.3163146972656 765.6925659179688,349.1701965332031 765.2410278320312,341.7425842285156 768.6703491210938,335.08734130859375 775.0675048828125,331.0494384765625 782.7164916992188,330.7656555175781 789.562255859375,334.3570861816406 793.7672729492188,340.89630126953125 794.2080688476562,348.6583251953125 790.7798461914062,355.58740234375 784.4243774414062,359.85308837890625 776.8753662109375,360.34576416015625 770.1893920898438,356.9765625 766.189453125,350.70172119140625 765.971435546875,343.2635803222656 769.6080932617188,336.7193603515625 776.1289672851562,332.8843688964844 783.7830200195312,332.84100341796875 790.5126342773438,336.64569091796875 794.5101318359375,343.3137512207031 794.7069091796875,351.0857849121094 791.062744140625,357.90374755859375 784.576416015625,361.96771240234375 777.0156860351562,362.2230224609375 770.4388427734375,358.6454772949219 766.637939453125,352.2480773925781 766.6536865234375,344.8067626953125 770.4940795898438,338.3800048828125 777.1322021484375,334.7517395019531 784.7838745117188,334.9488220214844 791.390625,338.9629821777344 795.1766967773438,345.7533264160156 795.1293334960938,353.5277404785156 791.2727661132812,360.22784423828125 784.6619873046875,364.0860900878906 777.096923828125,364.103759765625 770.6357421875,360.3214111328125 767.0376586914062,353.8077697753906 767.287109375,346.3706359863281 771.3275146484375,340.0676574707031 778.0762939453125,336.64971923828125 785.718017578125,337.0870056152344 792.1954345703125,341.3067321777344 795.766357421875,348.212646484375 795.4747314453125,355.9817199707031 791.40966796875,362.5574035644531 784.6809692382812,366.2060852050781 777.1190795898438,365.98614501953125 770.7799072265625,362.002685546875 767.38818359375,355.3792724609375 767.8711547851562,347.95361328125 772.1074829101562,341.7806701660156 778.9603271484375,338.5763854980469 786.5845336914062,339.2535095214844 792.9262084960938,343.67462158203125 796.2784423828125,350.6893005371094 795.7429809570312,358.44537353515625 791.4733276367188,364.8901062011719 784.63330078125,368.32562255859375 777.0820922851562,367.8682556152344 770.8711547851562,363.68768310546875 767.6891479492188,356.9609680175781 768.4050903320312,349.5541687011719 772.8333129882812,343.517333984375 779.7833862304688,340.5298767089844 787.382568359375,341.4461364746094 793.582275390625,346.06427001953125 796.7124633789062,353.1807861328125 795.9336547851562,360.91619873046875 791.4636840820312,367.2236633300781 784.5191650390625,370.4426574707031 776.9860229492188,369.7483215332031 770.909423828125,365.37469482421875 767.9403076171875,358.5513610839844 768.8885498046875,351.1706848144531 773.5042114257812,345.27593994140625 780.544677734375,342.5082702636719 788.111328125,343.66278076171875 794.1629028320312,348.4733581542969 797.0680541992188,355.6846923828125 796.046630859375,363.3918151855469 791.3807373046875,369.5557556152344 784.3385009765625,372.5550231933594 776.8309326171875,371.6244201660156 770.8947143554688,367.06207275390625 768.141357421875,360.1488342285156 769.3209838867188,352.8016052246094 774.1195068359375,347.05474853515625 781.2434692382812,344.50958251953125 788.7700805664062,345.9012145996094 794.6676025390625,350.8995056152344 797.3447875976562,358.1985168457031 796.081787109375,365.8697814941406 791.224609375,371.88409423828125 784.0916137695312,374.6606750488281 776.6170043945312,373.4947204589844 770.8270263671875,368.7481689453125 768.2921752929688,361.7518615722656 769.7020263671875,354.4453125 774.6786499023438,348.85198974609375 781.8790283203125,346.5318603515625 789.3582153320312,348.1592102050781 795.0958251953125,353.3403015136719 797.54248046875,360.71978759765625 796.0391235351562,368.34759521484375 790.9954223632812,374.2063903808594 783.7787475585938,376.7575378417969 776.3444213867188,375.35736083984375 770.7063598632812,370.4313049316406 768.3925170898438,363.35882568359375 770.0311889648438,356.10015869140625 775.1810913085938,350.6659240722656 782.4508056640625,348.5731201171875 789.8751831054688,350.4346008300781 795.4472045898438,355.7933349609375 797.6608276367188,363.24603271484375 795.9185791015625,370.8228454589844 790.693359375,376.52032470703125 783.400146484375,378.84356689453125 776.013427734375,377.2105407714844 770.5328979492188,372.1098327636719 768.4423828125,364.9681396484375 770.3082275390625,357.7645263671875 775.6262817382812,352.4947509765625 782.9581298828125,350.6313171386719 790.3203735351562,352.7250671386719 795.7213134765625,358.2561950683594 797.6997680664062,365.7747497558594 795.7203979492188,373.2931213378906 790.3187866210938,378.82366943359375 782.9561767578125,380.9166259765625 775.6244506835938,379.0523986816406 770.3068237304688,373.78204345703125 768.441650390625,366.5782470703125 770.5328369140625,359.4367980957031 776.0137939453125,354.3366394042969 783.4005737304688,352.7044372558594 790.6934204101562,355.0284118652344 795.91796875,360.7264404296875 797.6592407226562,368.3034362792969 795.4447631835938,375.75592041015625 789.8720703125,381.11407470703125 782.4473266601562,382.9747619628906 775.177734375,380.88116455078125 770.0283203125,375.4463806152344 768.390380859375,368.1875305175781 770.704833984375,361.11529541015625 776.34326171875,356.1898193359375 783.7776489257812,354.7904357910156 790.9939575195312,357.34234619140625 796.0369262695312,363.20166015625 797.5393676757812,370.8296203613281 795.0918579101562,378.2088623046875 789.3535766601562,383.3893127441406 781.8740844726562,385.015869140625 774.6738891601562,382.6949462890625 769.6976928710938,377.1011047363281 768.2885131835938,369.7944030761719 770.8240356445312,362.79833984375 776.6143798828125,358.05242919921875 784.0890502929688,356.8872375488281 791.2216186523438,359.66455078125 796.0780639648438,365.6794128417969 797.3401489257812,373.35076904296875 794.6620483398438,380.6495056152344 788.763916015625,385.64715576171875 781.237060546875,387.0379638671875 774.1132202148438,384.4920349121094 769.3152465820312,378.7446594238281 768.1362915039062,371.39727783203125 770.8902587890625,364.48431396484375 776.8268432617188,359.922607421875 784.3344116210938,358.9927978515625 791.376220703125,361.9927673339844 796.0413208007812,368.1571960449219 797.0618286132812,375.86444091796875 794.1558227539062,383.075439453125 788.1036376953125,387.8853759765625 780.5367431640625,389.0390625 773.4964599609375,386.2706298828125 768.88134765625,380.3753662109375 767.9337768554688,372.9945983886719 770.9035034179688,366.1715393066406 776.98046875,361.7985534667969 784.5135498046875,361.1050109863281 791.4576416015625,364.32470703125 795.9268188476562,370.63262939453125 796.7047729492188,378.3681335449219 793.5736694335938,385.4842834472656 787.3733520507812,390.1017150878906 779.7739868164062,391.0171813964844 772.8240966796875,388.0289611816406 768.396484375,381.99163818359375 767.68115234375,374.5847473144531 770.86376953125,367.8583679199219 777.0750732421875,363.67840576171875 784.626220703125,363.2218322753906 791.4657592773438,366.6580505371094 795.734619140625,373.1032409667969 796.2691650390625,380.8593444824219 792.9160766601562,387.8736267089844 786.5737915039062,392.2940673828125 778.949462890625,392.9703369140625 772.0968627929688,389.76531982421875 767.8610229492188,383.5918884277344 767.3787231445312,376.16619873046875 770.7710571289062,369.5430908203125 777.110595703125,365.560302734375 784.67236328125,365.34112548828125 791.4005737304688,368.9905090332031 795.4649047851562,375.56658935546875 795.7555541992188,383.3356628417969 792.1837768554688,390.2411804199219 785.705810546875,394.4601745605469 778.06396484375,394.89666748046875 771.3154296875,391.47796630859375 767.275634765625,385.1745300292969 767.0267944335938,377.7373352050781 770.62548828125,371.22406005859375 777.0869750976562,367.4423828125 784.6519165039062,367.4608459472656 791.26220703125,371.3197326660156 795.117919921875,378.0202331542969 795.1644287109375,385.79461669921875 791.3775024414062,392.58453369140625 784.7702026367188,396.5979919433594 777.118408203125,396.7942199707031 770.4805908203125,393.16522216796875 766.6407470703125,386.7380065917969 766.6256713867188,379.2966613769531 770.4271850585938,372.899658203125 777.0042724609375,369.3227844238281 784.5648803710938,369.578857421875 791.0507202148438,373.64349365234375 794.6940307617188,380.4617919921875 794.496337890625,388.2337951660156 790.498046875,394.9013977050781 783.7678833007812,398.7053527832031 776.1137084960938,398.6611328125 769.5931396484375,394.825439453125 765.9570922851562,388.2807922363281 766.17578125,380.8426208496094 770.1763305664062,374.56817626953125 776.862548828125,371.1996765136719 784.411376953125,371.6930847167969 790.7662963867188,375.9594421386719 794.1937255859375,382.8888244628906 793.751953125,390.6507873535156 789.5462036132812,397.18951416015625 782.6998901367188,400.7801818847656 775.0508422851562,400.49554443359375 768.654052734375,396.4569396972656 765.225341796875,389.8013000488281 765.6775512695312,382.3736877441406 769.8732299804688,376.2279968261719 776.6619262695312,373.0711669921875 784.1915283203125,373.8014831542969 790.4093017578125,378.26531982421875 793.6173706054688,385.2989501953125 792.9320068359375,393.043212890625 788.52294921875,399.44659423828125 781.5672607421875,402.8204345703125 773.9309692382812,402.2956848144531 767.6641235351562,398.0581359863281 764.4461669921875,391.298095703125 765.1314697265625,383.88836669921875 769.51806640625,377.8774719238281 776.4026489257812,374.9354553222656 783.9055786132812,375.9018859863281 789.9801025390625,380.5588684082031 792.9656372070312,387.6897888183594 792.037353515625,395.40869140625 787.4293212890625,401.6704406738281 780.3710327148438,404.8241271972656 772.7550048828125,404.0597839355469 766.6243896484375,399.6274719238281 763.620361328125,392.7696838378906 764.5380859375,385.3851318359375 769.111328125,379.5149841308594 776.0848999023438,376.7906799316406 783.5537719726562,377.9923095703125 789.47900390625,382.8377685546875 792.2390747070312,390.0589599609375 791.0687866210938,397.7449035644531 786.266357421875,403.8587951660156 779.112548828125,406.78924560546875 771.5242309570312,405.7860412597656 765.535888671875,401.1633605957031 762.7487182617188,394.214599609375 763.89794921875,386.8625183105469 768.6533813476562,381.138916015625 775.7090454101562,378.6349792480469 783.136474609375,380.0706481933594 788.9066162109375,385.0998229980469 791.4384765625,392.4041442871094 790.0274047851562,400.0495300292969 785.0352783203125,406.00958251953125 777.7929077148438,408.7138671875 770.2398681640625,407.4728088378906 764.399658203125,402.6642761230469 761.8321533203125,395.63140869140625 763.2117309570312,388.3190612792969 768.1445922851562,382.7476501464844 775.2754516601562,380.4665832519531 782.6541137695312,382.13482666015625 788.263427734375,387.3428039550781 790.5646362304688,394.7230224609375 788.9140625,402.3203125 783.7371826171875,408.12060546875 776.4135131835938,410.5960693359375 768.9031982421875,409.1183776855469 763.2168579101562,404.1288146972656 760.87158203125,397.01873779296875 762.4801025390625,389.7533264160156 767.5855102539062,384.3396301269531 774.7844848632812,382.2836608886719 782.107177734375,384.182861328125 787.5501098632812,389.564453125 789.6183471679688,397.0133056640625 787.72998046875,404.55499267578125 782.3734741210938,410.1898498535156 774.9756469726562,412.43402099609375 767.5154418945312,410.7211608886719 761.9886474609375,405.555419921875 759.8677978515625,398.3752136230469 761.7037963867188,391.1639099121094 766.9767456054688,385.91326904296875 774.2367553710938,384.0844421386719 781.4961547851562,386.21270751953125 786.767333984375,391.7625732421875 788.6005859375,399.27276611328125 786.4762573242188,406.75140380859375 780.9454345703125,412.2152099609375 773.480712890625,414.2259216308594 766.0780029296875,412.2795715332031 760.7162475585938,406.9427795410156 758.8219604492188,399.6994934082031 760.8836059570312,392.5494079589844 766.31884765625,387.46697998046875 773.6326904296875,385.8670959472656 780.8216552734375,388.22235107421875 785.9159545898438,393.93505859375 787.5123901367188,401.4991149902344 785.1541748046875,408.9073486328125 779.4544677734375,414.1947021484375 771.9302978515625,415.969970703125 764.5923461914062,413.79205322265625 759.40087890625,408.28948974609375 757.7350463867188,400.9902648925781 760.0202026367188,393.9084777832031 765.6124877929688,388.999267578125 772.9729614257812,387.6299133300781 780.0844116210938,390.2098083496094 784.9967041015625,396.0797119140625 786.3547973632812,403.690185546875 783.7650756835938,411.02069091796875 777.9020385742188,416.12640380859375 770.3258056640625,417.6644592285156 763.0599365234375,415.2571105957031 758.0438232421875,409.5942077636719 756.608154296875,402.24627685546875 759.1146240234375,395.23974609375 764.8582763671875,390.50860595703125 772.2581787109375,389.3711242675781 779.2850952148438,392.1731262207031 784.0106201171875,398.1944580078125 785.1289672851562,405.84381103515625 782.3102416992188,413.08935546875 776.2897338867188,418.0083923339844 768.6689453125,419.3077087402344 761.4822387695312,416.67333984375 756.646484375,410.85565185546875 755.4423217773438,403.46624755859375 758.1676635742188,396.5419006347656 764.0570678710938,391.9935302734375 771.4890747070312,391.08905029296875 778.4244995117188,394.1103820800781 782.95849609375,400.27716064453125 783.8360595703125,407.9578857421875 780.7911376953125,415.1112976074219 774.6190795898438,419.83880615234375 766.9612426757812,420.8981018066406 759.86083984375,418.039306640625 755.210205078125,412.07257080078125 754.23876953125,404.64898681640625 757.1802368164062,397.8136901855469 763.2096557617188,393.4525451660156 770.6663208007812,392.7819519042969 777.50341796875,396.0196228027344 781.841552734375,402.3258056640625 782.4773559570312,410.0302734375 779.2092895507812,417.08453369140625 772.8917846679688,421.6158447265625 765.2044677734375,422.43408203125 758.1973876953125,419.3536376953125 753.7364501953125,413.2438049316406 752.9985961914062,405.7933654785156 756.1533813476562,399.0538330078125 762.3167724609375,394.88421630859375 769.7908935546875,394.44818115234375 776.5228881835938,397.8990173339844 780.6607666015625,404.3383483886719 781.0542602539062,412.0589904785156 777.5662231445312,419.0071105957031 771.1094970703125,423.3377685546875 763.4002685546875,423.91412353515625 756.493408203125,420.6151123046875 752.2266235351562,414.3681640625 751.72314453125,406.8982238769531 755.0880126953125,400.2610778808594 761.37939453125,396.2871398925781 768.8634643554688,396.0860900878906 775.4837646484375,399.7466735839844 779.4173583984375,406.31280517578125 779.5681762695312,414.0419921875 775.8635864257812,420.87713623046875 769.2740478515625,425.0028381347656 761.5504760742188,425.33673095703125 754.7506713867188,421.8224182128906 750.6821899414062,415.44451904296875 750.4136352539062,407.96246337890625 753.9852905273438,401.4342956542969 760.3983764648438,397.6599426269531 767.8851318359375,397.6940612792969 774.3871459960938,401.560791015625 778.112548828125,408.2472229003906 778.0205078125,415.97735595703125 774.10302734375,422.6927490234375 767.3871459960938,426.60943603515625 759.6569213867188,426.7005615234375 752.9708251953125,422.9743957519531 749.104736328125,416.47186279296875 749.0712890625,408.98504638671875 752.8463134765625,402.5722961425781 759.374755859375,399.001220703125 766.856689453125,399.2704772949219 773.234130859375,403.3395690917969 776.7476196289062,410.13970947265625 776.412841796875,417.8631286621094 772.286376953125,424.4521789550781 765.4507446289062,428.15594482421875 757.7214965820312,428.0042419433594 751.1557006835938,424.06988525390625 747.4957275390625,417.4491271972656 747.697509765625,409.9649658203125 751.6720581054688,403.6739501953125 758.3095092773438,400.3096923828125 765.779296875,400.8138427734375 772.0257568359375,405.08123779296875 775.3239135742188,411.9883728027344 774.7467041015625,419.6974792480469 770.415283203125,426.1536560058594 763.4667358398438,429.6408996582031 755.7460327148438,429.2464904785156 749.3070678710938,425.10784912109375 745.8568725585938,418.3753662109375 746.2936401367188,410.9012451171875 750.4638671875,404.7381896972656 757.2036743164062,401.5840759277344 764.6539306640625,402.3226013183594 770.7632446289062,406.7840881347656 773.8428955078125,413.79144287109375 773.0237426757812,421.4786071777344 768.49169921875,427.7955322265625 761.43701171875,431.06280517578125 753.7325439453125,430.4260559082031 747.4267578125,426.0871887207031 744.1897583007812,419.24969482421875 744.861083984375,411.79296875 749.2227783203125,405.763916015625 756.058349609375,402.8230895996094 763.4817504882812,403.7952880859375 769.4479370117188,408.4464416503906 772.305908203125,415.54705810546875 771.2457275390625,423.2047119140625 766.5175170898438,429.37615966796875 759.3637084960938,432.42022705078125 751.6829833984375,431.54180908203125 745.5166015625,427.00701904296875 742.4959716796875,420.0711975097656 743.4011840820312,412.6392517089844 747.9501342773438,406.75018310546875 754.8746948242188,404.0255126953125 762.263916015625,405.23040771484375 768.0809936523438,410.0666809082031 770.7145385742188,417.2535705566406 769.4143676757812,424.8741149902344 764.49462890625,430.8940124511719 757.2487182617188,433.7118835449219 749.5994262695312,432.5926208496094 743.5784912109375,427.86639404296875 740.7772216796875,420.839111328125 741.9154052734375,413.4392395019531 746.6470947265625,407.69598388671875 753.65380859375,405.1901550292969 761.0015258789062,406.6265563964844 766.6638793945312,411.6431579589844 769.0703735351562,418.90924072265625 767.5314331054688,426.4851989746094 762.425048828125,432.34759521484375 755.09423828125,434.93646240234375 747.4838256835938,433.5774841308594 741.6143798828125,428.6644592285156 739.03515625,421.5526428222656 740.4052734375,414.19219970703125 745.3150024414062,408.60040283203125 752.39697265625,406.3158874511719 759.6959838867188,407.98236083984375 765.1979370117188,413.17437744140625 767.375,420.5124206542969 765.598876953125,428.03631591796875 760.3108520507812,433.73541259765625 752.9022827148438,436.0927429199219 745.33837890625,434.4953918457031 739.6261596679688,429.4004211425781 737.2716064453125,422.21112060546875 738.8721923828125,414.8973388671875 743.9551391601562,409.4625244140625 751.1054077148438,407.4015808105469 758.3484497070312,409.2965087890625 763.6845703125,414.6587829589844 765.630126953125,422.06158447265625 763.6185302734375,429.5259704589844 758.1541137695312,435.05615234375 750.6751708984375,437.17962646484375 743.1651611328125,435.3454895019531 737.6157836914062,430.0736083984375 735.4882202148438,422.8138732910156 737.3177490234375,415.5539855957031 742.5689086914062,410.281494140625 749.7803955078125,408.4461669921875 756.9603271484375,410.5676574707031 762.1253662109375,416.09490966796875 763.83740234375,423.55517578125 761.5924072265625,430.95269775390625 755.9569091796875,436.3085021972656 748.4149780273438,438.19598388671875 740.96630859375,436.1268615722656 735.585205078125,430.68328857421875 733.686767578125,423.3603210449219 735.7434692382812,416.1614685058594 741.1576538085938,411.0565185546875 748.4231567382812,409.4486389160156 755.5328979492188,411.79461669921875 760.5218505859375,417.4813537597656 761.9987182617188,424.9917297363281 759.5223999023438,432.3150634765625 753.7214965820312,437.4912414550781 746.1240234375,439.140869140625 738.7439575195312,436.83880615234375 733.5365600585938,431.2288818359375 731.8690185546875,423.8498840332031 734.1508178710938,416.7192077636719 739.7227172851562,411.7868347167969 747.03515625,410.407958984375 754.0676879882812,412.9761047363281 758.8755493164062,418.8167419433594 760.1157836914062,426.36981201171875 757.41064453125,433.61175537109375 751.4500122070312,438.6031494140625 743.804443359375,440.0133361816406 736.5003662109375,437.4805908203125 731.4717407226562,431.7098693847656 730.036865234375,424.2821350097656 732.54150390625,417.22662353515625 738.2655029296875,412.47174072265625 745.61767578125,411.3232116699219 752.5661010742188,414.1109924316406 757.1881103515625,420.0997619628906 758.1904907226562,427.68804931640625 755.2592163085938,434.8414611816406 749.144775390625,439.6431579589844 741.4586791992188,440.8125 734.2377319335938,438.05157470703125 729.3928833007812,432.125732421875 728.1919555664062,424.6566162109375 730.9169921875,417.6832580566406 736.7875366210938,413.1105041503906 744.1721801757812,412.1934814453125 751.0296020507812,415.1981506347656 755.4612426757812,421.3291320800781 756.2247314453125,428.9451904296875 753.0702514648438,436.00299072265625 746.8079833984375,440.6102600097656 739.0889282226562,441.53759765625 731.958251953125,438.55120849609375 727.3019409179688,432.47613525390625 726.3362426757812,424.97296142578125 729.2789306640625,418.0886535644531 735.290283203125,413.7025451660156 742.7000122070312,413.0179443359375 749.459716796875,416.23651123046875 753.696533203125,422.5036926269531 754.220458984375,430.1399230957031 750.8458251953125,437.0951843261719 744.4419555664062,441.50347900390625 736.6975708007812,442.1878967285156 729.6642456054688,438.97900390625 725.2009887695312,432.7606506347656 724.4714965820312,425.2308654785156 727.6289672851562,418.4423828125 733.7750854492188,414.24725341796875 741.2027587890625,413.7957458496094 747.8579711914062,417.22503662109375 751.8958740234375,423.6222229003906 752.1796264648438,431.2711486816406 748.5881958007812,438.1169738769531 742.0490112304688,442.3219299316406 734.2869873046875,442.76275634765625 727.35791015625,439.33453369140625 723.0922241210938,432.97906494140625 722.5995483398438,425.4300537109375 725.96875,418.7441101074219 732.2435913085938,414.7441101074219 739.6817016601562,414.526123046875 746.2259521484375,418.16278076171875 750.0609130859375,424.6836242675781 750.1043090820312,432.33770751953125 746.2996215820312,439.06732177734375 739.631591796875,443.0648193359375 731.8594970703125,443.2616271972656 725.0415649414062,439.617431640625 720.9776000976562,433.131103515625 720.7222900390625,425.57037353515625 724.2998046875,418.9935302734375 730.6972045898438,415.192626953125 738.1385498046875,415.2083740234375 744.5653076171875,419.0487976074219 748.1935424804688,425.6868896484375 747.9965209960938,433.3385314941406 743.9822998046875,439.9453430175781 737.1919555664062,443.7314147949219 729.4176025390625,443.6839904785156 722.7174682617188,439.82745361328125 718.8592529296875,433.2166748046875 718.841552734375,425.6516418457031 722.6239013671875,419.1904296875 729.1375122070312,415.5923156738281 736.57470703125,415.841796875 742.8776245117188,419.8822021484375 746.2955932617188,426.6309814453125 745.8582763671875,434.2726745605469 741.6385498046875,440.7501220703125 734.732666015625,444.321044921875 726.9635620117188,444.0294494628906 720.3878784179688,439.96435546875 716.7392578125,433.2356262207031 716.9591674804688,425.6737976074219 720.942626953125,419.3345642089844 727.5660400390625,415.9428405761719 734.99169921875,416.4258117675781 741.1646728515625,420.6622009277344 744.3689575195312,427.5150146484375 743.6918334960938,435.1391906738281 739.2706909179688,441.48089599609375 732.2560424804688,444.8331298828125 724.4999389648438,444.2976379394531 718.05517578125,440.02801513671875 714.6196899414062,433.1880187988281 715.0770263671875,425.6368103027344 719.2576293945312,419.42584228515625 725.9843139648438,416.24383544921875 733.3911743164062,416.9598083496094 739.427978515625,421.38800048828125 742.4154663085938,428.33807373046875 741.4991455078125,435.9372253417969 736.8810424804688,442.1369323730469 729.7645263671875,445.2671813964844 722.0291137695312,444.48834228515625 715.7216186523438,440.01837158203125 712.502685546875,433.0738220214844 713.197021484375,425.54071044921875 717.5706176757812,419.4641418457031 724.3939819335938,416.4949951171875 731.7745971679688,417.4432678222656 737.6693725585938,422.05889892578125 740.4370727539062,429.099365234375 739.2825317382812,436.666015625 734.471923828125,442.71759033203125 727.2606201171875,445.62274169921875 719.553466796875,444.601318359375 713.3895263671875,439.9354248046875 710.3903198242188,432.8932189941406 711.3209228515625,425.3856201171875 715.8832397460938,419.44940185546875 722.7964477539062,416.696044921875 730.1436767578125,417.8757019042969 735.8905639648438,422.6741943359375 738.4357299804688,429.79815673828125 737.0441284179688,437.3247985839844 732.0458374023438,443.2222900390625 724.746826171875,445.8995056152344 717.0755615234375,444.636474609375 711.0612182617188,439.779296875 708.2846069335938,432.6463317871094 709.4506225585938,425.1716613769531 714.1971435546875,419.3817138671875 721.1934204101562,416.84686279296875 728.5,418.2566833496094 734.0933227539062,423.23333740234375 736.4134521484375,430.4337158203125 734.7860717773438,437.9129333496094 729.6050415039062,443.6505126953125 722.2255249023438,446.0971374511719 714.5977172851562,444.5937805175781 708.7388916015625,439.5500793457031 706.187744140625,432.33343505859375 707.5879516601562,424.8990783691406 712.5139770507812,419.26104736328125 719.5864868164062,416.9472351074219 726.8451538085938,418.58587646484375 732.2793579101562,423.73577880859375 734.3721923828125,431.0054626464844 732.5107421875,438.42987060546875 727.1519775390625,444.00189208984375 719.6992797851562,446.21551513671875 712.1224365234375,444.4732971191406 706.4249877929688,439.248046875 704.1017456054688,431.954833984375 705.7347412109375,424.568115234375 710.8355102539062,419.0876159667969 717.9771728515625,416.9970703125 725.1807861328125,418.8629150390625 730.4505615234375,424.18096923828125 732.3140258789062,431.5128173828125 730.22021484375,438.87506103515625 724.6891479492188,444.2760009765625 717.1705322265625,446.25445556640625 709.6522216796875,444.2751159667969 704.1216430664062,438.87347412109375 702.0286865234375,431.5108642578125 703.8928833007812,424.1791076660156 709.1632690429688,418.8615417480469 716.3670654296875,416.996337890625 723.5084838867188,419.0875244140625 728.608642578125,424.5684814453125 730.2409057617188,431.9552307128906 727.9168701171875,439.24810791015625 722.2188720703125,444.47265625 714.641845703125,446.2139587402344 707.1893920898438,443.9994201660156 701.8312377929688,438.4267272949219 699.9705810546875,431.00201416015625 702.0641479492188,423.7324523925781 707.4989624023438,418.5830383300781 714.7578125,416.9450378417969 721.8300170898438,419.259521484375 726.7554931640625,424.89794921875 728.1549072265625,432.33233642578125 725.6029663085938,439.5486145019531 719.74365234375,444.59161376953125 712.1156616210938,446.0940246582031 704.7364501953125,443.6465148925781 699.5559692382812,437.90826416015625 697.929443359375,430.4288024902344 700.2503662109375,423.2285461425781 705.8441772460938,418.25238037109375 713.1509399414062,416.84320068359375 720.14697265625,419.3786926269531 724.8928833007812,425.1690673828125 726.05810546875,432.64373779296875 723.28076171875,439.77630615234375 717.2659301757812,444.63275146484375 709.5945434570312,445.89483642578125 702.2958374023438,443.21673583984375 697.2981567382812,437.318603515625 695.9073486328125,429.7917175292969 698.4532470703125,422.6679382324219 704.20068359375,417.86993408203125 711.5480346679688,416.69097900390625 718.4609985351562,419.4449462890625 723.022705078125,425.38153076171875 723.9525146484375,432.8891296386719 720.9525146484375,439.930908203125 714.7880859375,444.5960388183594 707.0808715820312,445.6165466308594 699.869873046875,442.71051025390625 695.0599365234375,436.6582946777344 693.90625,429.0914611816406 696.6746826171875,422.0511474609375 702.5699462890625,417.43603515625 709.9507446289062,416.4884338378906 716.7737426757812,419.4582214355469 721.146728515625,425.53515625 721.8402709960938,433.0682373046875 718.62060546875,440.0123291015625 712.3126831054688,444.48150634765625 704.5772094726562,445.2594299316406 697.4610595703125,442.1283264160156 692.8435668945312,435.92803955078125 691.9281616210938,428.32867431640625 694.9163208007812,421.3788146972656 700.9536743164062,416.9511413574219 708.360595703125,416.23583984375 715.0869750976562,419.41845703125 719.2669067382812,425.6297607421875 719.7235107421875,433.180908203125 716.2872314453125,440.02044677734375 709.8421020507812,444.289306640625 702.0859375,444.8238525390625 695.0716552734375,441.47076416015625 690.6512451171875,435.1285095214844 689.9749755859375,427.5041198730469 693.1799926757812,420.65155029296875 699.3533935546875,416.41571044921875 706.7791137695312,415.9334411621094 713.4022216796875,419.32574462890625 717.385009765625,425.665283203125 717.6041870117188,433.22705078125 713.954833984375,439.9552917480469 707.3787231445312,444.0195617675781 699.6096801757812,444.31024169921875 692.7041625976562,440.7384948730469 688.485107421875,434.260498046875 688.0486450195312,426.61865234375 691.4673461914062,419.8701171875 697.770751953125,415.8302917480469 705.2079467773438,415.58148193359375 711.7212524414062,419.18017578125 715.5029296875,425.6416931152344 715.4844970703125,433.20660400390625 711.6255493164062,439.81689453125 704.925048828125,443.672607421875 697.1506958007812,443.7190856933594 690.3607788085938,439.93218994140625 686.3473510742188,433.32489013671875 686.151123046875,425.673095703125 689.7800903320312,419.0352783203125 696.207275390625,415.1954345703125 703.6486206054688,415.18035888671875 710.045654296875,418.98187255859375 713.6224975585938,425.5589599609375 713.366455078125,433.1195983886719 709.3018188476562,439.6053771972656 702.4835205078125,443.2487487792969 694.7114868164062,443.0509948730469 688.0438842773438,439.0527038574219 684.239990234375,432.32257080078125 684.2841796875,424.66839599609375 688.119873046875,418.1478576660156 694.66455078125,414.51177978515625 702.1026611328125,414.73046875 708.3771362304688,418.73101806640625 711.7456665039062,425.417236328125 711.252197265625,432.966064453125 706.98583984375,439.32098388671875 700.0564575195312,442.7483825683594 692.2945556640625,442.306640625 685.7557983398438,438.1008605957031 682.1651611328125,431.25457763671875 682.4497680664062,423.6055603027344 686.4884033203125,417.2087097167969 693.1439819335938,413.780029296875 700.5715942382812,414.23223876953125 706.7173461914062,418.4278869628906 709.8741455078125,425.21661376953125 709.1438598632812,432.7462158203125 704.6799926757812,438.9640197753906 697.6463623046875,442.17205810546875 689.902099609375,441.4866943359375 683.4987182617188,437.07763671875 680.1248779296875,430.1219177246094 680.6495971679688,422.4856262207031 684.8871459960938,416.21881103515625 691.647216796875,413.0008544921875 699.0569458007812,413.6861267089844 705.0678100585938,418.0727844238281 708.0098876953125,424.9573059082031 707.0433959960938,432.46026611328125 702.386474609375,438.5347595214844 695.2555541992188,441.5202941894531 687.53662109375,440.592041015625 681.27490234375,435.9840087890625 678.1212158203125,428.9257507324219 678.8855590820312,421.3096923828125 683.31787109375,415.1790771484375 690.1756591796875,412.175048828125 697.5601806640625,413.0927429199219 703.4302978515625,417.6660461425781 706.1546630859375,424.63958740234375 704.9530029296875,432.10845947265625 700.1075439453125,438.03369140625 692.8863525390625,440.79376220703125 685.200439453125,439.6235046386719 679.0864868164062,434.821044921875 676.1560668945312,427.667236328125 677.1592407226562,420.0789489746094 681.781982421875,414.090576171875 688.730712890625,411.3034362792969 696.0828247070312,412.45263671875 701.806396484375,417.2080383300781 704.310302734375,424.26373291015625 702.8746948242188,431.6911926269531 697.845458984375,437.4612731933594 690.5411376953125,439.9931640625 682.8958129882812,438.5820617675781 676.9357299804688,433.5899353027344 674.2314453125,426.34759521484375 675.4725341796875,418.7945861816406 680.281005859375,412.954345703125 687.3139038085938,410.3868713378906 694.6262817382812,411.76641845703125 700.1976318359375,416.69927978515625 702.4786987304688,423.8301086425781 700.8104858398438,431.2088317871094 695.6025390625,436.818115234375 688.2222900390625,439.11932373046875 680.625,437.46875 674.82470703125,432.2918701171875 672.3492431640625,424.9681701660156 673.826904296875,417.4578552246094 678.8165283203125,411.77154541015625 685.9265747070312,409.4262390136719 693.1919555664062,411.0348205566406 698.6056518554688,416.1402282714844 700.66162109375,423.3392028808594 698.762451171875,430.661865234375 693.380859375,436.10479736328125 685.9320068359375,438.17303466796875 678.3903198242188,436.28466796875 672.7554931640625,430.92816162109375 670.5112915039062,423.5303039550781 672.22412109375,416.0700988769531 677.389892578125,410.5433349609375 684.570068359375,408.4225158691406 691.7813720703125,410.2585144042969 697.0320434570312,415.53143310546875 698.8609008789062,422.79144287109375 696.7326049804688,430.05084228515625 691.1827392578125,435.3220520019531 683.6725463867188,437.1553039550781 676.1939086914062,435.0309753417969 670.7301025390625,429.5000915527344 668.7194213867188,422.035400390625 670.665771484375,414.6326904296875 676.0025024414062,409.2709045410156 683.2457885742188,407.3766784667969 690.3958740234375,409.4382629394531 695.4783325195312,414.87353515625 697.0782470703125,422.1874084472656 694.7229614257812,429.3763732910156 689.01025390625,434.47064208984375 681.4462280273438,436.06707763671875 674.0379638671875,433.7088928222656 668.7506103515625,428.0091552734375 666.975341796875,420.4849853515625 669.1532592773438,413.1470642089844 674.6558227539062,407.9555358886719 681.9550170898438,406.2897644042969 689.036865234375,408.5749206542969 693.946044921875,414.1671447753906 695.3154296875,421.52764892578125 692.7355346679688,428.63909912109375 686.8656005859375,433.5514221191406 679.255126953125,434.90948486328125 671.9246215820312,432.31976318359375 666.8189086914062,426.45672607421875 665.2808837890625,418.8805236816406 667.6881713867188,411.6146240234375 673.3511352539062,406.5985107421875 680.6990356445312,405.162841796875 687.70556640625,407.6693115234375 692.4367065429688,413.4129943847656 693.5741577148438,420.8128662109375 690.7721557617188,427.83978271484375 684.7508544921875,432.5652770996094 677.1015014648438,433.6836242675781 669.85595703125,430.86492919921875 664.9368896484375,424.84442138671875 663.6376342773438,417.2236328125 666.27197265625,410.03692626953125 672.0896606445312,405.201171875 679.4790649414062,403.99700927734375 686.4033813476562,406.7223205566406 690.9517822265625,412.6117858886719 691.8562622070312,420.0437316894531 688.8349609375,426.9791564941406 682.6681518554688,431.5132141113281 674.9874267578125,432.3907165527344 667.833984375,429.3458251953125 663.1065063476562,423.17376708984375 662.0471801757812,415.51593017578125 664.906005859375,408.4155578613281 670.8727416992188,403.7649230957031 678.2963256835938,402.7934265136719 685.1316528320312,405.73492431640625 689.4927978515625,411.7643127441406 690.1633911132812,419.2210388183594 686.9256591796875,426.0581359863281 680.6195068359375,430.396240234375 672.9150390625,431.0320739746094 665.8607788085938,427.76397705078125 661.3294677734375,421.44647216796875 660.51123046875,413.7591552734375 663.5916748046875,406.7520446777344 669.7014770507812,402.2911376953125 677.1519165039062,401.5533142089844 683.8914794921875,404.7080383300781 688.0610961914062,410.8714599609375 688.4971313476562,418.3455505371094 685.0462646484375,425.07757568359375 678.6069946289062,429.2154541015625 670.8862915039062,429.6089782714844 663.9381713867188,426.12091064453125 659.6075439453125,419.6642150878906 659.0311889648438,411.9549560546875 662.3302001953125,405.048095703125 668.5771484375,400.7812805175781 676.047119140625,400.2778625488281 682.6842041015625,403.6427307128906 686.6581420898438,409.93408203125 686.8592529296875,417.4181823730469 683.1986083984375,424.0384826660156 676.6325073242188,427.9720458984375 668.9033203125,428.12286376953125 662.0681762695312,424.41827392578125 657.9425048828125,417.8287353515625 657.6085815429688,410.1051940917969 661.1229248046875,403.3053283691406 667.5007934570312,399.23687744140625 674.9828491210938,398.96832275390625 681.510986328125,402.5400085449219 685.285400390625,408.95306396484375 685.2512817382812,416.4397888183594 681.384521484375,422.9418640136719 674.6981201171875,426.667236328125 666.9679565429688,426.5751953125 660.2525634765625,422.6577453613281 656.3358764648438,415.9418640136719 656.2447509765625,408.2116394042969 659.970947265625,401.5255432128906 666.4734497070312,397.6593933105469 673.9602661132812,397.6260070800781 680.373046875,401.4009704589844 683.944091796875,407.929443359375 683.6748046875,415.4114074707031 679.6057739257812,421.7887878417969 672.8056030273438,425.30230712890625 665.0821533203125,424.9674987792969 658.4931640625,420.8410339355469 654.7893676757812,414.00543212890625 654.9410400390625,406.27618408203125 658.8754272460938,399.7104187011719 665.4962158203125,396.0504455566406 672.9803466796875,396.2522277832031 679.2713623046875,400.2267761230469 682.6356201171875,406.86419677734375 682.1314697265625,414.333984375 677.8640747070312,420.5804138183594 670.9569091796875,423.8786315917969 663.247802734375,423.3013610839844 656.7916870117188,418.969970703125 653.3043823242188,412.02142333984375 653.6988525390625,404.30072021484375 657.8374633789062,397.8617858886719 664.5699462890625,394.4115905761719 672.0440673828125,394.8483581542969 678.2071533203125,399.0185241699219 681.3612060546875,405.75836181640625 680.6226806640625,413.2086486816406 676.1611938476562,419.31793212890625 669.1538696289062,422.3975524902344 661.4667358398438,421.57843017578125 655.1497802734375,417.04638671875 651.8825073242188,409.9917297363281 652.5192260742188,402.2872314453125 656.8580932617188,395.9814758300781 663.6956176757812,392.74444580078125 671.15234375,393.4157409667969 677.181396484375,397.7774658203125 680.1221923828125,404.613037109375 679.1500244140625,412.03643798828125 674.4988403320312,418.0025939941406 667.3982543945312,420.860595703125 659.7406005859375,419.8004150390625 653.5691528320312,415.0721740722656 650.5250854492188,407.9183654785156 651.4035034179688,400.2376708984375 655.9382934570312,394.0713195800781 662.8740844726562,391.0506591796875 670.3060913085938,391.95587158203125 676.1951293945312,396.5047912597656 678.9197998046875,403.4293518066406 677.7149047851562,410.8185729980469 672.8786010742188,416.63568115234375 665.6917724609375,419.26922607421875 658.0711669921875,417.96905517578125 652.05126953125,413.0492858886719 649.2334594726562,405.80340576171875 650.3526611328125,398.1540832519531 655.0789184570312,392.1332092285156 662.106201171875,389.3318786621094 669.5060424804688,390.4700927734375 675.2493286132812,395.2017822265625 677.755126953125,402.20849609375 676.3187866210938,409.55621337890625 671.3021240234375,415.21856689453125 664.0360717773438,417.62506103515625 656.4601440429688,416.0861511230469 650.5977172851562,410.979736328125 648.0088500976562,403.6488952636719 649.3677978515625,396.03851318359375 654.2808837890625,390.1690673828125 661.3926391601562,387.5898742675781 668.7531127929688,388.9599609375 674.3449096679688,393.86968994140625 676.62939453125,400.95166015625 674.9629516601562,408.2506408691406 669.7709350585938,413.7525939941406 662.432861328125,415.9296875 654.9089965820312,414.153564453125 649.2098999023438,408.86553955078125 646.8526000976562,401.4570007324219 648.4498901367188,393.89306640625 653.5448608398438,388.1808166503906 660.7341918945312,385.8262939453125 668.0479736328125,387.4268798828125 673.4827880859375,392.5098571777344 675.543701171875,399.66009521484375 673.6488037109375,406.90313720703125 668.2865600585938,412.2392883300781 660.8837280273438,414.1847839355469 653.4193115234375,412.1732177734375 647.88916015625,406.70880126953125 645.7656860351562,399.2298583984375 647.599853515625,391.7198181152344 652.8717041015625,386.1704406738281 660.1314086914062,384.04290771484375 667.391357421875,385.8724365234375 672.663818359375,391.12359619140625 674.4991455078125,398.3350524902344 672.3776245117188,405.5149841308594 666.8504028320312,410.6800842285156 659.39013671875,412.39208984375 651.9926147460938,410.1470642089844 646.6367797851562,404.5116271972656 644.7493286132812,396.9696960449219 646.8184204101562,389.5209655761719 652.2620239257812,384.1399230957031 659.5850219726562,382.241455078125 666.7838745117188,384.2981262207031 671.8887939453125,389.7123107910156 673.4967041015625,396.97784423828125 671.1506958007812,404.0876159667969 665.4639892578125,409.0765380859375 657.95361328125,410.5533752441406 650.6302490234375,408.07708740234375 645.4541015625,402.27618408203125 643.804443359375,394.6786804199219 646.1065063476562,387.29864501953125 651.7164306640625,382.09124755859375 659.0953979492188,380.4237365722656 666.2261352539062,382.70550537109375 671.158447265625,388.2773742675781 672.537353515625,395.58984375 669.96923828125,402.6224060058594 664.1286010742188,407.43023681640625 656.5755004882812,408.6704406738281 649.3335571289062,405.9653625488281 644.3421630859375,400.0047302246094 642.9319458007812,392.3591613769531 645.4647216796875,385.0550537109375 651.2354736328125,380.02642822265625 658.6631469726562,378.5915222167969 665.7186889648438,381.0961608886719 670.4735717773438,386.8202209472656 671.6220703125,394.17236328125 668.8343505859375,401.12078857421875 662.8455810546875,405.7427978515625 655.2572631835938,406.7451477050781 648.1038208007812,403.81390380859375 643.3021240234375,397.699462890625 642.1328125,390.01336669921875 644.8937377929688,382.79241943359375 650.819580078125,377.9475402832031 658.2886962890625,376.74664306640625 665.2620239257812,379.4716796875 669.8347778320312,385.3422546386719 670.7518310546875,392.72686767578125 667.7471923828125,399.58428955078125 661.6161499023438,404.0158996582031 654.0001220703125,404.7794189453125 646.9423217773438,401.6249084472656 642.3350830078125,395.3626403808594 641.40771484375,387.64361572265625 644.3941040039062,380.5129699707031 650.4691772460938,375.8565979003906 657.9723510742188,374.89093017578125 664.856689453125,377.8336486816406 669.2427978515625,383.8449401855469 669.9273681640625,391.2547302246094 666.7088012695312,398.0143737792969 660.441650390625,402.2512512207031 652.8053588867188,402.775146484375 645.8501586914062,399.4005126953125 641.4418334960938,392.9966125488281 640.7573852539062,385.25225830078125 643.96630859375,378.21893310546875 650.1846313476562,373.7557067871094 657.7144775390625,373.02618408203125 664.5029296875,376.1836853027344 668.6980590820312,382.3298034667969 669.1495971679688,389.7574157714844 665.7202758789062,396.41265869140625 659.3231201171875,400.4505615234375 651.6741333007812,400.7343444824219 644.828369140625,397.1429138183594 640.6233520507812,390.60369873046875 640.1825561523438,382.8416748046875 643.6107788085938,375.91259765625 649.9662475585938,371.64691162109375 657.5152587890625,371.15423583984375 664.2012329101562,374.5234375 668.201171875,380.79827880859375 668.419189453125,388.2364196777344 664.7825317382812,394.7806396484375 658.2616577148438,398.6156311035156 650.6076049804688,398.65899658203125 643.8779907226562,394.85430908203125 639.8804931640625,388.1862487792969 639.6837158203125,380.4142150878906 643.327880859375,373.59625244140625 649.814208984375,369.53228759765625 657.3749389648438,369.2769775390625 663.9517822265625,372.8545227050781 667.752685546875,379.2519226074219 667.7369384765625,386.6932373046875 663.8965454101562,393.1199951171875 657.2584228515625,396.7482604980469 649.6067504882812,396.5511779785156 643,392.5370178222656 639.2139282226562,385.7466735839844 639.2612915039062,377.9722595214844 643.1178588867188,371.27215576171875 649.7286376953125,367.4139099121094 657.293701171875,367.396240234375 663.7548828125,371.1785888671875 667.3529663085938,377.6922302246094 667.103515625,385.1293640136719 663.0631103515625,391.4323425292969 656.3143310546875,394.85028076171875 648.672607421875,394.4129943847656 642.1951904296875,390.1932678222656 638.624267578125,383.287353515625 638.9158935546875,375.5182800292969 642.98095703125,368.9425964355469 649.7096557617188,365.2939147949219 657.2715454101562,365.51385498046875 663.6107177734375,369.497314453125 667.00244140625,376.1207275390625 666.5194702148438,383.54638671875 662.2831420898438,389.7193298339844 655.4302978515625,392.9236145019531 647.8060913085938,392.2464904785156 641.4644165039062,387.82537841796875 638.1121826171875,380.8106994628906 638.6476440429688,373.05462646484375 642.9172973632812,366.6098937988281 649.75732421875,363.17437744140625 657.3085327148438,363.6317443847656 663.5194702148438,367.81231689453125 666.7014770507812,374.5390319824219 665.9855346679688,381.9458312988281 661.5573120117188,387.982666015625 654.6072387695312,390.9701232910156 647.008056640625,390.0538635253906 640.808349609375,385.43572998046875 637.6781616210938,378.3192138671875 638.4569702148438,370.58380126953125 642.9269409179688,364.2763366699219 649.8714599609375,361.0573425292969 657.4046020507812,361.7516784667969 663.481201171875,366.12530517578125 666.4503173828125,372.9486389160156 665.5020751953125,380.3293151855469 660.8864135742188,386.22406005859375 653.845947265625,388.9917297363281 646.279296875,387.83721923828125 640.2277221679688,383.0266418457031 637.3225708007812,375.8153076171875 638.343994140625,368.1081848144531 643.0098876953125,361.9442443847656 650.0521240234375,358.9449768066406 657.5596923828125,359.8755798339844 663.4959106445312,364.43792724609375 666.249267578125,371.3511657714844 665.0696411132812,378.6983947753906 660.2711181640625,384.44525146484375 653.1471557617188,386.99041748046875 645.6205444335938,385.5987854003906 639.7230224609375,380.6004943847656 637.0458374023438,373.3014831542969 638.308837890625,365.6302185058594 643.166015625,359.61590576171875 650.2990112304688,356.8393249511719 657.7736206054688,358.0052795410156 663.5635986328125,362.7518310546875 666.0984497070312,369.7481384277344 664.6885986328125,377.0546875 659.7119750976562,382.64801025390625 652.5115966796875,384.9681396484375 645.0324096679688,383.3407897949219 639.2947998046875,378.1596984863281 636.84814453125,370.78021240234375 638.3515014648438,363.15240478515625 643.3952026367188,357.2936096191406 650.6118774414062,354.7424621582031 658.0462036132812,356.14263916015625 663.6842651367188,361.0686950683594 665.9981079101562,368.14117431640625 664.3594360351562,375.39984130859375 659.2095336914062,380.8340759277344 651.9398193359375,382.9268798828125 644.5154418945312,381.0653991699219 638.9434204101562,375.7066650390625 636.7297973632812,368.25396728515625 638.4720458984375,360.6771545410156 643.697265625,354.97967529296875 650.990478515625,352.65643310546875 658.377197265625,354.2894592285156 663.8577270507812,359.3901672363281 665.9482421875,366.5318603515625 664.0823974609375,373.7354736328125 658.7643432617188,379.0052490234375 651.4324951171875,380.8686828613281 644.0702514648438,378.7749328613281 638.6693115234375,373.2438049316406 636.6908569335938,365.7252502441406 638.6702270507812,358.2068786621094 644.0718383789062,352.67633056640625 651.4344482421875,350.5833740234375 658.7661743164062,352.4476013183594 664.0838012695312,357.71795654296875 665.948974609375,364.9217529296875 663.8577880859375,372.0632019042969 658.3768310546875,377.1633605957031 650.9900512695312,378.7955627441406 643.6972045898438,376.4715881347656 638.47265625,370.7735595703125 636.7313842773438,363.1965637207031 638.9458618164062,355.74407958984375 644.5185546875,350.38592529296875 651.9432983398438,348.5252380371094 659.212890625,350.61883544921875 664.3623046875,356.0536193847656 666.000244140625,363.3124694824219 663.685791015625,370.38470458984375 658.04736328125,375.3101806640625 650.6129760742188,376.7095642089844 643.3966674804688,374.15765380859375 638.3536987304688,368.29833984375 636.8512573242188,360.6703796386719 639.2987670898438,353.2911376953125 645.0370483398438,348.1106872558594 652.5165405273438,346.484130859375 659.7167358398438,348.8050537109375 664.6929321289062,354.3988952636719 666.1021118164062,361.7055969238281 663.5665893554688,368.70166015625 657.7762451171875,373.44757080078125 650.3015747070312,374.6127624511719 643.1690063476562,371.83544921875 638.3125610351562,365.8205871582031 637.0504760742188,358.14923095703125 639.7285766601562,350.8504943847656 645.626708984375,345.85284423828125 653.153564453125,344.4620361328125 660.2774047851562,347.0079650878906 665.0753784179688,352.7553405761719 666.2543334960938,360.10272216796875 663.5003662109375,367.01568603515625 657.5637817382812,371.577392578125 650.0562133789062,372.5072021484375 643.014404296875,369.5072326660156 638.3493041992188,363.3428039550781 637.3287963867188,355.63555908203125 640.2348022460938,348.424560546875 646.2869873046875,343.6146240234375 653.8538818359375,342.4609375 660.8941650390625,345.2293701171875 665.50927734375,351.1246337890625 666.4568481445312,358.5054016113281 663.4871215820312,365.3284606933594 657.41015625,369.7014465332031 649.8770751953125,370.3949890136719 642.9329833984375,367.17529296875 638.4638061523438,360.86737060546875 637.6858520507812,353.1318664550781 640.8169555664062,346.0157165527344 647.0172729492188,341.3982849121094 654.6166381835938,340.4828186035156 661.5665283203125,343.4710388183594 665.994140625,349.50836181640625 666.70947265625,356.9152526855469 663.52685546875,363.6416320800781 657.3155517578125,367.82159423828125 649.764404296875,368.2781677246094 642.9248657226562,364.8419494628906 638.656005859375,358.3967590332031 638.1214599609375,350.6406555175781 641.4745483398438,343.6263732910156 647.8168334960938,339.2059326171875 655.441162109375,338.5296630859375 662.2937622070312,341.73468017578125 666.5296020507812,347.9081115722656 667.0119018554688,355.33380126953125 663.6195678710938,361.9569091796875 657.280029296875,365.939697265625 649.71826171875,366.15887451171875 642.9900512695312,362.5094909667969 638.9257202148438,355.93341064453125 638.6350708007812,348.1643371582031 642.2068481445312,341.2588195800781 648.684814453125,337.0398254394531 656.32666015625,336.60333251953125 663.0751953125,340.02203369140625 667.114990234375,346.3254699707031 667.3638305664062,353.7626647949219 663.76513671875,360.27593994140625 657.3036499023438,364.0576171875 649.7387084960938,364.0391540527344 643.12841796875,360.1802673339844 639.272705078125,353.4797668457031 639.2261962890625,345.70538330078125 643.0131225585938,338.91546630859375 649.6204223632812,334.9020080566406 657.272216796875,334.7057800292969 663.9100341796875,338.33477783203125 667.7498779296875,344.7619934082031 667.7649536132812,352.2033386230469 663.9634399414062,358.600341796875 657.3863525390625,362.1772155761719 649.8257446289062,361.921142578125 643.3399047851562,357.85650634765625 639.6965942382812,351.0382080078125 639.894287109375,343.2662048339844 643.892578125,336.5986022949219 650.6227416992188,332.7946472167969 658.2769165039062,332.8388671875 664.7974853515625,336.674560546875 668.4335327148438,343.2192077636719 668.21484375,350.6573791503906 664.2142944335938,356.93182373046875 657.528076171875,360.3003234863281 649.979248046875,359.8069152832031 643.6243286132812,355.5405578613281 640.1968994140625,348.6111755371094 640.638671875,340.8492126464844 644.8444213867188,334.31048583984375 651.6907348632812,330.7198181152344 659.3397827148438,331.00445556640625 665.736572265625,335.0430603027344 669.165283203125,341.6986999511719 668.7130737304688,349.1263122558594 664.5173950195312,355.2720031738281 657.7286987304688,358.4288330078125 650.1990966796875,357.6985168457031 643.9813232421875,353.23468017578125 640.7732543945312,346.2010498046875 641.4586181640625,338.456787109375 645.86767578125,332.05340576171875 652.8233642578125,328.6795654296875 660.4596557617188,329.2043151855469 666.7265014648438,333.4418640136719 669.9444580078125,340.201904296875 669.2591552734375,347.61163330078125 664.87255859375,353.6225280761719 657.9879760742188,356.5645446777344 650.4850463867188,355.5981140136719 644.4105224609375,350.9411315917969 641.4249877929688,343.8102111816406 642.353271484375,336.09130859375 646.9613037109375,329.8295593261719 654.0195922851562,326.6758728027344 661.6356201171875,327.4402160644531 667.7662353515625,331.8725280761719 670.770263671875,338.7303161621094 669.8525390625,346.1148681640625 665.279296875,351.9850158691406 658.3057250976562,354.7093200683594 650.8368530273438,353.5076904296875 644.91162109375,348.6622314453125 642.1515502929688,341.4410400390625 643.3218383789062,333.7550964355469 648.124267578125,327.6412048339844 655.278076171875,324.71075439453125 662.8663940429688,325.7139587402344 668.854736328125,330.3366394042969 671.6419067382812,337.285400390625 670.49267578125,344.6374816894531 665.7372436523438,350.361083984375 658.6815795898438,352.8650207519531 651.254150390625,351.4293518066406 645.4840087890625,346.4001770019531 642.9521484375,339.0958557128906 644.3632202148438,331.4504699707031 649.3553466796875,325.49041748046875 656.5977172851562,322.7861328125 664.1507568359375,324.0271911621094 669.990966796875,328.8357238769531 672.5584716796875,335.86859130859375 671.1788940429688,343.1809387207031 666.2460327148438,348.7523498535156 659.1151733398438,351.0334167480469 651.7365112304688,349.36517333984375 646.127197265625,344.1571960449219 643.8259887695312,336.7769775390625 645.4765625,329.1796875 650.6534423828125,323.37939453125 657.9771118164062,320.9039306640625 665.4874267578125,322.3816223144531 671.1737670898438,327.3711853027344 673.51904296875,334.48126220703125 671.9105224609375,341.7466735839844 " stroke="white" stroke-width="1px" fill="none"></polyline>
</svg>