<svg xmlns="http://www.w3.org/2000/svg" id='neeraj' viewBox='27 68 185 242.5'> <!--  viewBox='73.5 68 150 152.5' -->
  <!-- Note that directions like right, left in the comments are used in the context of the model, and not of the viewport. So, in the comments, left is meant by right side of the viewport, and vice-versa. -->
  <style>
    /* sasta color picker and saver */
    *{
      color: #a19170;
      color: #8f8061;
      color: rgba(0,0,0,0.596);
      color: #ffe5b6;
      color: #ccb892;
      color: #ddc79f;
      color: wheat;
      color: #bebebe;
    }
  </style>

  <!-- kaale ghane baal -->
  <path
    d="M85,150
       c-15,-40 0,-120 100,-60
       q4,4 0,10 20,15 -5,70
       z
       " fill='black' />

  <!-- kaan -->
  <!-- left kaan -->
  <path
    d="M86,145
       q-5,-15 -12.5,5 5,20 5,22.5 0,10 20,10
       z
       " fill='#e2cca4' />
  <path 
    d="M85,148
       q-5,-10 -7.5,5 2,4 3.5,12
       " fill='none' stroke='#a19170' stroke-width='1.5px' style='filter:blur(1.5px)' />

  <!-- right kaan -->
  <path
    d="M180,155
       q7.5,-10 13,5 1,0 1,3  -11,20 -10,22.5 -9.5,10 -20,6.5
       z
       " fill='#ecd5a9' />
  <path 
    d="M182,158
       q4,-10 8,3 1,0 0,3  -11,20 -10,22.5
       m0,-20
       q2,5 -2,10
       " fill='none' stroke='#a89879' stroke-width='1.5px' style='filter: blur(1.5px)' />

  <!-- shirt -->
  <!-- right wala part -->
  <path 
    d="M0,310
       q0,-22.5 5,-45 0,-2 7.5,-7.5 30,-15 65,-24 0,-16 18,-20
       v15
       
       q40,15 35,82
       " />

  <!-- left wala part -->
  <path 
    d="M240,310
       q0,-22.5 -5,-45 0,-2 -7.5,-7.5 -30,-15 -53,-24 5,-13 -18,-20
       v11
       q-40,15 -34,86
       " />
  
  <!-- cap aka topi, hoody wali -->
  <path 
    d="M95,227
       v-8
       q-7.5,0 -11,10 2,1 11,0
       m62,-2
       v-8
       q7.5,0 13,10 -2,1 -13,-2
       
       " fill='red' />

  <!-- cap ka saaya -->
  <path 
    d="M72,234
       q20,0 35,30 -20,-20 -35,-30
       m105,1
       q-20,0 -35,30 20,-20 35,-30
       " fill='gray' style='filter: blur(3px)' />

  <!-- cap ke ched aur un me se nikalti strings aur unki caps -->
  <!-- ched -->
  <path 
    d="M90.5,235
       q2.5,-5 5,0 -2.5,5 -5,0
       m62,-1
       q2.5,-5 5,0 -2.5,5 -5,0
       " stroke='#bebebe' fill='none' />

  <!-- strings -->
  <path 
    d="M92.5,235
       q5,2 10,25
       m52.85,-26
       q-5,5 -5,22.5 0.25,2 0,4 0,2 -2,15
       " stroke='red' stroke-width='3' fill='none' style='stroke-linecap: round;' />

  <!-- caps(strings ki) -->
  <path 
    d="M99.65,256
       l3.5,-1 1.5,8
       q-1.5,2 -4,0.5

       m46.25,10
       l3.5,1 -1.5,8
       q-2,2 -4,-0.5
       
       " fill='#bebebe' />
  

  <!-- grdan -->
  <path 
    d="M90.5,184
       q5,0 5,15
       l-1,30
       q30,15 30,35 20,-35 33,-38
       l-1,-15
       q0,-10 7,-14
       " fill='wheat' />
  
  <!-- mukhde ka saaya grdan par -->
  <path 
    d="M161.5,197
       q-43,50 -64,-3
       " fill='#ddc79f' style='filter: blur(5px)' />
  

  <!-- chand jaisa mukhda -->
  <path
    d="M90,130
       c-0,-5 -0,-25 10,-30 5,-15 25,-3 28,-2.5
       q40,-10 50,20
       l-1,-2
       q20,70 -40,100 -12.5,10 -25,0 -30,-30 -27.6,-70
       z
       " fill='wheat'/>

  <!-- aankh ke bhai -->
  <path 
    d="M97,131
       q5,-4 10,-5 5,-2 10,0 5,2 0,5 -10,-2 -20,2
       z
       " />
  <path 
    d="M166,138
       q-3,-6 -10,-8 -5,-2 -12,-1 -5,2 0,5 11,-2 22,6
       z
       " />

  <!-- sundar nayan -->

  <!-- left aankh -->

  <path 
    d="M99,142
      c3,-8 17,-9 18,-2
      q-12,3 -18,2
      z
      " fill='white' />
  <path 
    d="M99,142
      c3,-8 17,-9 18,-2
      m-18,2
      q-0.5,1 -1,0
      " stroke='rgba(0,0,0,0.596)' stroke-width='2px' fill='none' />
  <path 
    d="M96,142
      c2,-10 22,-13 22,-2
      m-22,2
      q-0.5,1 -1,0
      " fill='none' stroke='rgba(0,0,0,0.496)' stroke-width='1px' style='filter: blur(.75px)' />
  
  <!-- eye wali ball -->
  <path 
    d="M112,141.3
       q2.5,-2.5 0,-5 -3,-1 -6,0.5 -3,3 0,5.2
       z
       " />
  <!-- bich ka safed gola -->
  <path 
    d="M107.5,137.5
       q-2,1 0,2 2,-1 0,-2
       " fill='white' filter='blur(.3px)' />
  
  <!-- Sasta pseudo algorithm, that helps anyways -->
  <!-- height = 6px at the center -->
  <!-- height = 6px at 3px left -->
  <!-- height = 5px at 3px right -->

  <!-- aankh ke niche walla -->

  <path 
    d="M117,140
      q-12,3 -18,2
      z
      " style='filter:blur(1px)' stroke='black' stroke-width='0.5' fill='none' />
  <path 
    d="M118,140
      q-6,7 -14,6
      z
      " fill='rgb(0,0,0,0.5)' style='filter:blur(0.5px)'/>

  <!-- right aankh -->

  <path 
    d="M163,146
       c-3,-6 -17,-10 -20,-2
       q12,3 18,2
       z
       " fill='white' />
  <path 
    d="M163,146
       c-3,-6 -17,-10 -20,-2
       m20,2
       q0.5,1 1,0
       " stroke='rgba(0,0,0,0.596)' stroke-width='2px' fill='none' />
  <path 
    d="M165,146
       c-2,-10 -22,-13 -22,-2
       m22,2
       q0.5,1 1,0
       " fill='none' stroke='rgba(0,0,0,0.496)' stroke-width='1px' style='filter: blur(.75px)' />
  
  <!-- eye wali ball -->
  <path   
    d="M156,146.3
       q2.5,-2.5 0,-5 -3,-1 -6,-1 -2.5,2.5 0,5.1 3,1 7,1
       z
       " fill='black' />

  <!-- bich ka safed gola -->
  <path 
    d="M151,141
       q-2,1 0,2 2,-1 0,-2
       " fill='white' filter='blur(.3px)' />

  <!-- Sasta pseudo algorithm, that helps anyways -->
  <!-- height = 6px at the center -->
  <!-- height = 5px at 3px right -->
  <!-- height = 5px at 3px left -->

  <!-- aankh ke niche -->

  <path 
    d="M143,144
       q12,3 18,2
       z
       " style='filter:blur(1px)' stroke='black' stroke-width='0.5' fill='none' />
  <path 
    d="M142,144
       q7,6 16,6
       z
       " fill='rgba(0,0,0,0.5)' style='filter: blur(0.5px)' />

  <!-- shrupnakha wali naak -->
  
  <!-- naak ki rekha aankho se lekar nostrils tak -->
  <path 
    d="M128,135
       q-5,20 -5,26.5 0,2.5 3,5
       " stroke='rgba(0,0,0,0.5)' style='filter:blur(1px)' fill='none' stroke-width='.5px' />

  <!-- naak ke ghatte, aka nostrils -->
  
  <!-- left wala nostril -->
  <path 
    d="M123.5,150
       q-15,20 2.5,16 -5,-4 -1,-19
       z
       " fill='rgb(255, 229, 182)' style='filter:blur(1px)' />

  <path 
    d="M123,165
       q-2.5,-4 -5,-1
       z
       " fill='rgba(0,0,0,0.7)' />
  
  <!-- Right wala nostril -->
  <path
    d="M129.5,165
       q2.5,-4 5,1
       z
       " fill='rgba(0,0,0,0.7)' />
  <path
    d="M129.5,164
       q2.5,-4 5,1
       " fill='none' stroke='rgba(255,255,255,.9)' style='filter:blur(.7px)' />

  <!-- Bheege Bheege hooth tere oh ho -->

  <!-- Upar wala hooth -->
  <path
    d="M143,182
       q-13,-10 -17.25,-5 -4,-6 -17.25,3
       m1.5,1
       z
       " fill='#c58a7d' />

  <!-- neeche wala hooth -->
  <path
    d="M143,182
       q-17.25,10 -34.5,-2 8.5125,-1 17.25,1 8.5125,-1 17.25,1
       z
       " fill='#c99293' />
  <path
    d="M108.5,180
       q8.5125,-1 17.25,1 8.5125,-1 17.25,1
       " fill='none' stroke='rgba(0,0,0,0.8)' stroke-width='.5px' style='stroke-linecap:round;filter:blur(.4px)' />

  <image x='150' y='270' href='circular1.svg' height='30px' width='30px'></image>

  <!-- hootho ka kam kal karenge, tab tak ke liye namaskar :namaste :namaste :namaste -->
  
  <!-- kuch kaale saaye -->

  <!-- <path 
    d="M128,130
       q-5,20 -5,31.5 0,2.5 3,5
       l-3,9
       q2.5,2.5 1,5 2,2.5 0,6.5
       v10
       q-35,-15 -15,-30
       q5,-5 0,-20
       c-25,0 -25,-17 0,-21.5
       q10,-2 19,5
       z
       " fill='rgba(0,0,0,0.1)' style='filter:blur(5.5px)' /> -->
  
  <!-- script tag is only added to keep a note of coordinates by clicking on the screen. -->
  <script>document.addEventListener('click', function (e){console.log(`top se: ${e.clientY}\nleft se: ${e.clientX}`)})</script>
</svg>